<svg width="1718" height="966" viewBox="0 0 1718 966" fill="none" xmlns="http://www.w3.org/2000/svg">
<path d="M224.376 317.472C52.8572 93.3463 220.085 16.3335 325.139 5.84243L325.139 4.01708e-05L0 4.01708e-05L-7.1024e-06 965.999L348.221 965.999C372.487 961.862 459.5 871.229 459.5 767.5C459.5 627.594 438.775 597.629 224.376 317.472Z" fill="url(#paint0_linear_9_6)"/>
<path d="M1493.87 648.528C1665.2 872.653 1498.15 949.666 1393.21 960.157L1393.21 965.999L1718 965.999L1718 2.09081e-05L1370.16 5.13175e-05C1345.92 4.13738 1259 94.7703 1259 198.499C1259 338.405 1279.7 368.371 1493.87 648.528Z" fill="url(#paint1_linear_9_6)"/>
<ellipse cx="1323.62" cy="883.909" rx="302.624" ry="48.9089" fill="url(#paint2_radial_9_6)"/>
<ellipse cx="1468.06" cy="884.181" rx="60.5247" ry="9.78177" fill="url(#paint3_radial_9_6)"/>
<path d="M1343.63 188.535C1356.99 226.443 1347.77 256.579 1331.46 263.614C1306.11 274.546 1274.16 263.756 1274.16 263.756C1274.16 263.756 1291.82 243.388 1291.82 208.143C1291.82 170.663 1326.47 178.791 1343.63 188.535Z" fill="#263238"/>
<path d="M1299.67 877.932C1318.93 876.435 1331.89 863.22 1330.58 849.222C1329.84 841.498 1354.52 840.809 1354.52 840.809C1350.62 864.742 1355.52 868.164 1357.14 874.343C1358.75 880.522 1358.35 887.367 1353.24 887.486C1347.13 887.652 1344.27 886.488 1336.59 886.773C1327.7 887.13 1318.1 887.462 1302.29 887.486C1296.03 887.51 1291.11 878.597 1299.67 877.932Z" fill="#E8AA42"/>
<path d="M1271.52 426.985C1271.52 426.985 1274.97 539.187 1291.3 623.701C1294.73 686.683 1321.35 816.21 1327.68 846.156C1328.09 848.083 1329.09 849.832 1330.55 851.155C1332.01 852.478 1333.85 853.307 1335.81 853.524C1339.69 853.978 1343.6 854.018 1347.48 853.643C1349.54 853.399 1351.45 852.468 1352.91 851.001C1354.37 849.534 1355.29 847.617 1355.52 845.562C1358.8 819.419 1369.26 720.978 1354.69 622.489C1367.19 502.064 1362.94 426.985 1362.94 426.985H1271.52Z" fill="#263238"/>
<path opacity="0.2" d="M1363.44 482.813C1362.84 516.49 1360.75 564.166 1354.69 622.465C1355.97 631.092 1357.07 639.743 1357.76 648.323C1315.89 579.067 1305.97 469.646 1363.44 482.813Z" fill="#222831"/>
<path d="M1501.53 840.904C1494.49 833.364 1488.52 824.896 1483.79 815.735C1483.79 815.735 1461.75 821.154 1466.08 827.618C1473.92 839.145 1477.75 862.84 1467.65 875.532C1461.87 882.78 1471 883.992 1477.04 880.879C1486.55 875.959 1486.24 874.106 1491.3 865.954C1495.56 858.99 1497.25 856.257 1503.19 853.262C1507.88 850.672 1505.5 845.823 1501.53 840.904Z" fill="#E8AA42"/>
<path d="M1304.81 426.985C1304.81 426.985 1341.92 582.894 1365.32 649.488C1386.95 710.996 1445.51 801.903 1461.06 826.05C1462.19 827.804 1463.87 829.13 1465.84 829.815C1467.81 830.5 1469.95 830.505 1471.93 829.829C1475.84 828.552 1479.61 826.847 1483.15 824.743C1484.85 823.708 1486.17 822.154 1486.92 820.309C1487.67 818.464 1487.81 816.427 1487.31 814.499C1481.2 790.448 1457.02 698.043 1430.25 632.519C1418.36 474.019 1378.58 426.985 1378.58 426.985H1304.81Z" fill="#263238"/>
<path d="M1380.27 503.965C1380.45 503.972 1380.63 503.931 1380.79 503.846C1380.93 503.778 1381.06 503.682 1381.16 503.565C1381.27 503.448 1381.35 503.312 1381.4 503.164C1381.45 503.016 1381.47 502.859 1381.46 502.703C1381.45 502.547 1381.41 502.394 1381.34 502.254C1380.38 499.735 1380.04 497.018 1380.36 494.34C1380.68 491.661 1381.64 489.1 1383.17 486.877C1384.02 485.512 1385.24 484.416 1386.69 483.713C1388.14 483.011 1389.75 482.732 1391.35 482.908C1396.91 483.573 1410.63 486.449 1417.67 498.618C1417.83 498.889 1418.1 499.086 1418.4 499.166C1418.71 499.246 1419.04 499.203 1419.31 499.045C1419.58 498.887 1419.78 498.628 1419.86 498.325C1419.94 498.023 1419.89 497.701 1419.74 497.429C1414.39 488.208 1404.17 482.052 1391.64 480.531C1389.61 480.292 1387.55 480.632 1385.71 481.511C1383.87 482.39 1382.31 483.773 1381.22 485.499C1379.45 488.071 1378.33 491.041 1377.98 494.146C1377.63 497.251 1378.05 500.395 1379.2 503.3C1379.3 503.502 1379.45 503.672 1379.64 503.79C1379.83 503.907 1380.05 503.968 1380.27 503.965V503.965Z" fill="#E8AA42"/>
<path d="M1367.08 622.441L1462.2 610.273L1435.64 490.275L1358.61 500.139L1367.08 622.441Z" fill="#E8AA42"/>
<path opacity="0.2" d="M1358.61 500.139L1369.22 498.784L1392.66 619.185L1367.08 622.441L1358.61 500.139Z" fill="#222831"/>
<path d="M1173.21 281.058L1167.83 273.477C1165.88 270.723 1163.24 268.527 1160.18 267.108L1154.38 264.422C1152.52 263.569 1150.42 263.392 1148.44 263.922C1146.47 264.451 1144.74 265.654 1143.56 267.321L1139.87 272.503C1139.21 273.45 1138.73 274.519 1138.48 275.65C1138.23 276.781 1138.21 277.95 1138.41 279.09C1138.61 280.23 1139.04 281.319 1139.67 282.293C1140.29 283.267 1141.11 284.108 1142.06 284.766L1146.53 287.832C1146.53 287.832 1157.85 297.838 1169.85 298.717L1171.61 295.841C1173.02 293.675 1173.9 291.208 1174.17 288.64C1174.45 286.072 1174.12 283.475 1173.21 281.058V281.058Z" fill="#FFBE9D"/>
<path d="M1279.01 291.753L1276.16 293.94L1272.85 296.317C1270.47 297.909 1268.31 299.549 1265.96 301.07C1261.36 304.115 1256.6 306.901 1251.69 309.412C1249.31 310.648 1246.94 311.789 1244.44 312.739C1242.08 313.789 1239.66 314.701 1237.19 315.472C1234.81 316.257 1232.43 316.851 1230.06 317.374C1228.87 317.635 1227.68 317.825 1226.51 318.015L1224.75 318.229H1223.9H1224.4H1225.01C1226.37 318.562 1225.87 318.633 1225.37 318.467C1224.5 318.201 1223.65 317.867 1222.83 317.469C1220.52 316.308 1218.29 315.006 1216.15 313.571C1211.39 310.505 1206.64 306.94 1201.71 303.209C1191.99 295.818 1182.17 287.737 1172.28 280.013L1172.09 279.87C1170.3 278.473 1168.07 277.754 1165.8 277.841C1163.53 277.928 1161.36 278.816 1159.68 280.347C1158 281.878 1156.92 283.954 1156.62 286.206C1156.32 288.459 1156.83 290.744 1158.06 292.657C1165.23 303.775 1173.24 314.327 1182.03 324.219C1186.56 329.387 1191.4 334.283 1196.51 338.883C1199.35 341.438 1202.34 343.819 1205.47 346.012C1207.35 347.315 1209.32 348.483 1211.37 349.506C1214.35 351.035 1217.56 352.062 1220.88 352.548C1221.47 352.654 1222.08 352.718 1222.68 352.738H1223.66H1225.73C1226.73 352.738 1227.75 352.738 1228.75 352.738C1230.74 352.738 1232.77 352.596 1234.72 352.406C1238.61 352.066 1242.48 351.455 1246.29 350.576C1253.65 348.928 1260.82 346.54 1267.69 343.446C1274.35 340.554 1280.77 337.136 1286.88 333.226C1289.9 331.277 1292.87 329.281 1295.75 327.118C1297.2 326.025 1298.62 324.955 1300.05 323.791L1302.19 321.984L1304.57 319.893C1307.63 316.464 1309.35 312.05 1309.43 307.456C1309.51 302.862 1307.94 298.392 1305 294.859C1302.06 291.327 1297.95 288.968 1293.41 288.21C1288.88 287.453 1284.22 288.347 1280.29 290.731L1279.01 291.753Z" fill="#FFBE9D"/>
<path d="M1267.15 317.754C1267.53 326.88 1253.12 347.985 1270.9 360.201C1267.6 367.64 1264.79 418.001 1271.52 426.985C1281.32 434.115 1334.48 432.808 1378.51 426.985C1380.37 408.78 1370.36 371.062 1382.62 312.264C1383.3 309.045 1383.29 305.72 1382.59 302.505C1381.9 299.291 1380.53 296.258 1378.59 293.605C1376.64 290.951 1374.16 288.736 1371.31 287.102C1368.45 285.469 1365.28 284.455 1362.01 284.124C1358.33 283.768 1354.4 283.435 1350.38 283.245C1336.35 282.258 1322.26 282.258 1308.23 283.245C1303.67 283.673 1298.98 284.243 1294.49 284.885C1286.66 285.988 1279.52 289.965 1274.47 296.042C1269.41 302.118 1266.8 309.859 1267.15 317.754Z" fill="#E8AA42"/>
<path opacity="0.6" d="M1267.15 317.754C1267.53 326.88 1253.12 347.985 1270.9 360.201C1267.6 367.64 1264.79 418.001 1271.52 426.985C1281.32 434.115 1334.48 432.808 1378.51 426.985C1380.37 408.78 1370.36 371.062 1382.62 312.264C1383.3 309.045 1383.29 305.72 1382.59 302.505C1381.9 299.291 1380.53 296.258 1378.59 293.605C1376.64 290.951 1374.16 288.736 1371.31 287.102C1368.45 285.469 1365.28 284.455 1362.01 284.124C1358.33 283.768 1354.4 283.435 1350.38 283.245C1336.35 282.258 1322.26 282.258 1308.23 283.245C1303.67 283.673 1298.98 284.243 1294.49 284.885C1286.66 285.988 1279.52 289.965 1274.47 296.042C1269.41 302.118 1266.8 309.859 1267.15 317.754Z" fill="white"/>
<path d="M1351.74 235.807C1348.39 249.378 1345.11 271.457 1350.46 283.34C1350.46 283.34 1330.44 284.243 1304.85 304.73C1292.8 287.048 1306.73 283.578 1306.73 283.578C1317.38 281.201 1319.05 268.153 1319.05 258.052L1351.74 235.807Z" fill="#FFBE9D"/>
<path opacity="0.2" d="M1319 257.886L1337.47 245.337C1337.65 248.184 1337.07 251.027 1335.81 253.584C1331.9 260.911 1325.53 266.619 1317.81 269.698C1318.62 265.813 1319.02 261.854 1319 257.886V257.886Z" fill="#222831"/>
<path d="M1360.54 210.947C1355.24 233.002 1353.4 242.438 1340.4 251.921C1320.74 266.181 1295.22 254.915 1294.06 231.767C1292.92 210.9 1301.76 178.363 1324.73 173.277C1347.7 168.191 1365.82 188.892 1360.54 210.947Z" fill="#FFBE9D"/>
<path d="M1358.68 191.506C1335.91 207.097 1307.37 201.488 1298.15 192.1C1290.35 184.186 1298.15 170.52 1298.15 170.52C1298.15 170.52 1301.62 176.295 1309.16 172.517C1316.69 168.738 1332.08 165.078 1344.61 168.144C1360.51 172.017 1374.83 180.455 1358.68 191.506Z" fill="#263238"/>
<path d="M1323.64 219.907C1323.33 221.737 1322.09 223.02 1320.93 222.83C1319.76 222.64 1319.02 220.976 1319.36 219.146C1319.69 217.316 1320.9 216.033 1322.09 216.247C1323.28 216.461 1323.97 218.101 1323.64 219.907Z" fill="#263238"/>
<path d="M1301.26 216.295C1300.95 218.101 1299.72 219.408 1298.53 219.194C1297.34 218.98 1296.65 217.34 1296.96 215.534C1297.27 213.728 1298.51 212.397 1299.69 212.611C1300.88 212.825 1301.6 214.464 1301.26 216.295Z" fill="#263238"/>
<path d="M1300.22 212.801L1296.08 210.781C1296.08 210.781 1297.7 214.678 1300.22 212.801Z" fill="#263238"/>
<path d="M1306.57 217.768C1304.21 221.613 1301.35 225.123 1298.05 228.202C1298.86 229.031 1299.84 229.674 1300.92 230.085C1302 230.496 1303.15 230.664 1304.31 230.578L1306.57 217.768Z" fill="#E9AE90"/>
<path d="M1317.5 239.348C1316.47 239.342 1315.43 239.247 1314.41 239.063C1314.28 239.025 1314.17 238.94 1314.1 238.826C1314.03 238.712 1314.01 238.576 1314.03 238.443C1314.05 238.311 1314.12 238.192 1314.23 238.109C1314.34 238.026 1314.47 237.985 1314.6 237.993C1316.85 238.448 1319.18 238.364 1321.39 237.748C1323.6 237.133 1325.63 236.003 1327.32 234.452C1327.42 234.354 1327.56 234.298 1327.7 234.298C1327.84 234.298 1327.98 234.354 1328.08 234.452C1328.13 234.501 1328.18 234.56 1328.2 234.625C1328.23 234.691 1328.25 234.761 1328.25 234.833C1328.25 234.904 1328.23 234.974 1328.2 235.04C1328.18 235.105 1328.13 235.164 1328.08 235.213C1325.23 237.92 1321.43 239.404 1317.5 239.348V239.348Z" fill="#263238"/>
<path d="M1362.15 231.482C1361.31 233.363 1360.08 235.045 1358.53 236.417C1356.99 237.789 1355.18 238.821 1353.21 239.443C1348.17 240.846 1345.68 235.332 1347.1 229.723C1348.39 224.684 1352.55 217.84 1357.59 219.004C1362.63 220.169 1364.46 226.562 1362.15 231.482Z" fill="#FFBE9D"/>
<path d="M1349.12 187.608C1353.89 185.804 1359.17 185.895 1363.88 187.862C1368.58 189.829 1372.36 193.523 1374.42 198.184C1388.21 228.439 1383.17 257.862 1370.38 266.965C1355.9 277.256 1326.89 274.095 1326.89 274.095C1326.89 274.095 1349.96 239.205 1342.44 216.912C1337.33 201.797 1339.42 191.577 1349.12 187.608Z" fill="#263238"/>
<path d="M1330.06 209.64C1329.92 209.6 1329.79 209.53 1329.68 209.436C1329.57 209.341 1329.48 209.225 1329.41 209.093C1328.83 207.879 1327.96 206.817 1326.89 205.992C1325.83 205.168 1324.58 204.602 1323.26 204.34C1322.98 204.304 1322.72 204.159 1322.55 203.937C1322.37 203.714 1322.3 203.432 1322.33 203.152C1322.34 203.011 1322.39 202.874 1322.45 202.75C1322.52 202.626 1322.61 202.516 1322.72 202.428C1322.84 202.34 1322.96 202.274 1323.1 202.235C1323.23 202.196 1323.38 202.184 1323.52 202.201C1325.21 202.506 1326.8 203.214 1328.17 204.265C1329.53 205.315 1330.62 206.678 1331.34 208.238C1331.41 208.364 1331.44 208.502 1331.46 208.643C1331.47 208.785 1331.45 208.927 1331.41 209.062C1331.36 209.197 1331.29 209.322 1331.2 209.429C1331.11 209.537 1330.99 209.624 1330.86 209.687C1330.6 209.778 1330.31 209.761 1330.06 209.64Z" fill="#263238"/>
<path d="M1294.87 205.172C1294.66 205.142 1294.46 205.049 1294.3 204.906C1294.14 204.763 1294.03 204.576 1293.98 204.37C1293.93 204.163 1293.94 203.945 1294.02 203.745C1294.09 203.545 1294.22 203.372 1294.39 203.247C1295.74 202.176 1297.32 201.443 1299.01 201.108C1300.7 200.774 1302.44 200.847 1304.09 201.322C1304.33 201.441 1304.52 201.644 1304.62 201.893C1304.72 202.143 1304.73 202.42 1304.64 202.673C1304.55 202.925 1304.37 203.136 1304.13 203.264C1303.89 203.391 1303.62 203.428 1303.36 203.366C1302.04 203.001 1300.66 202.958 1299.33 203.239C1298 203.521 1296.75 204.118 1295.7 204.982C1295.46 205.15 1295.16 205.219 1294.87 205.172V205.172Z" fill="#263238"/>
<path d="M1322.59 216.437L1318.45 214.417C1318.45 214.417 1320.09 218.22 1322.59 216.437Z" fill="#263238"/>
<path opacity="0.2" d="M1380.51 323.672C1378.39 336.17 1377.08 348.793 1376.61 361.461C1366.48 347.415 1354.95 321.913 1355.62 310.006L1380.51 323.672Z" fill="#E8AA42"/>
<path d="M1388.16 456.907L1380.75 470.335L1404.74 477.917C1404.74 477.917 1409.28 463.657 1405.33 452.463L1402.05 452.083C1399.52 451.758 1396.95 452.024 1394.54 452.861C1392.13 453.699 1389.95 455.084 1388.16 456.907Z" fill="#FFBE9D"/>
<path d="M1386.93 486.045L1395.56 487.566C1396.5 487.738 1397.46 487.723 1398.39 487.524C1399.32 487.324 1400.2 486.943 1400.99 486.402C1401.77 485.861 1402.44 485.172 1402.96 484.372C1403.47 483.573 1403.83 482.68 1404 481.743L1404.74 477.917L1380.75 470.335L1380.94 479.01C1380.97 480.694 1381.58 482.314 1382.68 483.596C1383.77 484.879 1385.27 485.744 1386.93 486.045Z" fill="#FFBE9D"/>
<path d="M1350.79 318.824L1363.18 335.46C1367.31 341.045 1371.33 346.678 1375.23 352.263C1377.18 355.044 1379.08 357.872 1380.89 360.676C1382.7 363.481 1384.5 366.238 1386.12 368.995C1387.74 371.752 1389.23 374.509 1390.52 377.052C1391.59 379.145 1392.52 381.313 1393.28 383.54L1393.04 381.757C1393.2 382.691 1393.28 383.638 1393.28 384.586C1393.28 385.845 1393.28 387.271 1393.28 388.745C1393.28 391.668 1393.06 394.781 1392.82 397.942C1392.35 404.264 1391.87 410.753 1391.23 417.288L1389.5 436.991C1388.95 443.598 1388.35 450.276 1388.02 456.883C1387.92 459.149 1388.61 461.379 1389.98 463.184C1391.36 464.988 1393.33 466.25 1395.54 466.75C1397.75 467.249 1400.07 466.953 1402.09 465.913C1404.1 464.874 1405.69 463.158 1406.57 461.066C1409.18 454.697 1411.32 448.351 1413.7 441.911C1416.08 435.47 1417.86 429.005 1419.74 422.446C1421.62 415.886 1423.33 409.255 1424.78 402.411C1425.49 398.964 1426.18 395.471 1426.75 391.787C1427.06 389.933 1427.3 388.032 1427.49 385.964C1427.72 383.595 1427.78 381.212 1427.68 378.834C1427.7 378.557 1427.7 378.279 1427.68 378.002L1427.51 377.028C1426.68 372.239 1425.38 367.543 1423.64 363.006C1422.12 358.894 1420.36 355.234 1418.62 351.598C1415.18 344.639 1411.38 337.864 1407.23 331.301C1403.24 324.813 1399.01 318.633 1394.66 312.549C1390.3 306.465 1385.88 300.666 1380.87 294.7C1377.62 290.982 1373.08 288.653 1368.16 288.196C1363.25 287.738 1358.35 289.187 1354.48 292.242C1350.61 295.298 1348.06 299.725 1347.36 304.607C1346.67 309.489 1347.88 314.452 1350.74 318.467L1350.79 318.824Z" fill="#FFBE9D"/>
<g opacity="0.6">
<path d="M1254.76 337.694C1254.76 337.694 1243.89 374.223 1217.64 386.463C1191.4 398.703 1159.63 381.995 1159.63 381.995C1159.63 381.995 1170.5 345.466 1196.77 333.226C1223.04 320.986 1254.76 337.694 1254.76 337.694Z" fill="#E8AA42"/>
<path d="M1239.61 410.491C1239.61 410.491 1215.01 426.486 1192.92 418.619C1170.83 410.753 1159.63 381.995 1159.63 381.995C1159.63 381.995 1184.26 366 1206.35 373.867C1228.44 381.734 1239.61 410.491 1239.61 410.491Z" fill="#E8AA42"/>
</g>
<g opacity="0.6">
<path d="M1032.57 337.694C1032.57 337.694 1043.42 374.223 1069.69 386.463C1095.96 398.703 1127.68 381.995 1127.68 381.995C1127.68 381.995 1116.81 345.466 1090.56 333.226C1064.31 320.986 1032.57 337.694 1032.57 337.694Z" fill="#E8AA42"/>
<path d="M1047.69 410.491C1047.69 410.491 1072.33 426.486 1094.39 418.619C1116.45 410.753 1127.68 381.995 1127.68 381.995C1127.68 381.995 1103.07 366 1080.98 373.867C1058.89 381.734 1047.69 410.491 1047.69 410.491Z" fill="#E8AA42"/>
</g>
<path d="M1090.9 361.603H1196.48C1198.81 361.597 1201.07 360.856 1202.95 359.486C1204.83 358.117 1206.23 356.188 1206.95 353.976C1207.67 351.765 1207.67 349.383 1206.95 347.172C1206.23 344.96 1204.83 343.032 1202.95 341.663L1158.85 309.578C1154.45 306.359 1149.14 304.624 1143.69 304.624C1138.24 304.624 1132.93 306.359 1128.53 309.578L1084.4 341.663C1082.52 343.033 1081.12 344.964 1080.41 347.177C1079.69 349.391 1079.69 351.775 1080.41 353.988C1081.13 356.201 1082.53 358.129 1084.42 359.497C1086.3 360.865 1088.57 361.602 1090.9 361.603V361.603ZM1143.68 306.94C1148.62 306.944 1153.44 308.508 1157.44 311.408L1201.57 343.517C1203.05 344.592 1204.14 346.106 1204.7 347.841C1205.26 349.577 1205.26 351.445 1204.7 353.18C1204.13 354.914 1203.04 356.426 1201.56 357.5C1200.09 358.573 1198.31 359.152 1196.48 359.155H1090.9C1089.07 359.152 1087.29 358.573 1085.82 357.5C1084.34 356.426 1083.24 354.914 1082.68 353.18C1082.12 351.445 1082.11 349.577 1082.68 347.841C1083.24 346.106 1084.33 344.592 1085.81 343.517L1129.94 311.408C1133.94 308.536 1138.75 306.998 1143.68 307.011V306.94Z" fill="#263238"/>
<path d="M1143.68 307.012C1143.99 307.012 1144.3 306.886 1144.52 306.663C1144.74 306.441 1144.87 306.138 1144.87 305.823V300.238C1144.89 299.241 1145.21 298.274 1145.8 297.467C1146.39 296.66 1147.21 296.051 1148.15 295.722C1150.25 294.913 1152.1 293.543 1153.48 291.761C1154.87 289.98 1155.74 287.854 1156 285.613C1156.27 283.373 1155.91 281.103 1154.98 279.048C1154.05 276.994 1152.57 275.233 1150.71 273.956C1148.85 272.68 1146.68 271.935 1144.42 271.804C1142.17 271.672 1139.92 272.159 1137.93 273.21C1135.93 274.262 1134.26 275.839 1133.09 277.77C1131.93 279.702 1131.31 281.916 1131.31 284.172C1131.31 284.487 1131.44 284.789 1131.66 285.012C1131.89 285.235 1132.19 285.36 1132.5 285.36C1132.82 285.36 1133.12 285.235 1133.34 285.012C1133.57 284.789 1133.69 284.487 1133.69 284.172C1133.69 282.675 1134.02 281.197 1134.67 279.847C1135.31 278.496 1136.25 277.308 1137.42 276.37C1138.59 275.432 1139.95 274.769 1141.41 274.428C1142.86 274.088 1144.38 274.08 1145.84 274.404C1147.91 274.892 1149.77 276.025 1151.15 277.639C1152.53 279.253 1153.36 281.263 1153.52 283.38C1153.68 285.497 1153.16 287.611 1152.05 289.415C1150.93 291.219 1149.26 292.621 1147.29 293.417C1145.91 293.928 1144.71 294.847 1143.86 296.052C1143.01 297.257 1142.55 298.692 1142.54 300.167V305.871C1142.55 306.17 1142.67 306.453 1142.88 306.664C1143.1 306.876 1143.38 307 1143.68 307.012V307.012Z" fill="#263238"/>
<path d="M1201.95 453.129C1188.19 419.855 1205 394.496 1205.66 374.437C1206.33 354.378 1179.22 340.118 1178.32 312.644C1163.53 304.183 1161.3 314.878 1161.3 314.878V332.703C1161.35 337.412 1159.54 341.951 1156.27 345.34C1153 348.729 1148.53 350.695 1143.82 350.813H1143.42C1138.71 350.695 1134.23 348.73 1130.96 345.341C1127.68 341.953 1125.87 337.414 1125.92 332.703V314.878C1125.92 314.878 1123.68 304.183 1108.89 312.644C1108.01 340.118 1080.91 354.378 1081.58 374.437C1082.24 394.496 1099.05 419.855 1085.26 453.129C1071.47 486.402 1023.44 680.551 1026.11 712.446C1042.11 726.088 1068.14 735.19 1089.64 740.847L1089.09 750.852C1125.43 767.251 1161.79 767.251 1198.15 750.852L1197.6 740.823C1219 735.19 1245.15 726.088 1261.11 712.446C1263.94 680.503 1215.79 486.402 1201.95 453.129Z" fill="#E8AA42"/>
<path d="M1090.56 425.103C1090.56 425.103 1090.02 430.805 1090.02 434.399C1090.02 437.993 1088.38 443.148 1088.38 443.148C1107.1 445.578 1128.78 447.025 1147.72 446.757C1163.99 447.526 1182.5 445.304 1198.33 442.055C1198.33 442.055 1197.67 437.091 1197.24 433.852C1196.79 430.458 1196.69 425.103 1196.69 425.103C1161.97 430.493 1125.28 430.493 1090.56 425.103Z" fill="#37474F"/>
<path opacity="0.2" d="M1192.89 724.186L1163.93 502.634L1201.33 691.982L1192.89 724.186Z" fill="#222831"/>
<path opacity="0.2" d="M1094.44 724.186L1123.37 502.634L1085.97 691.982L1094.44 724.186Z" fill="#222831"/>
<defs>
<linearGradient id="paint0_linear_9_6" x1="258.5" y1="722" x2="432.673" y2="-26.6001" gradientUnits="userSpaceOnUse">
<stop offset="0.00895846" stop-color="#F9F9F9"/>
<stop offset="1" stop-color="#E0E0E0" stop-opacity="0"/>
</linearGradient>
<linearGradient id="paint1_linear_9_6" x1="1459.78" y1="243.999" x2="1285.44" y2="992.516" gradientUnits="userSpaceOnUse">
<stop offset="0.00895846" stop-color="#F9F9F9"/>
<stop offset="1" stop-color="#E0E0E0" stop-opacity="0"/>
</linearGradient>
<radialGradient id="paint2_radial_9_6" cx="0" cy="0" r="1" gradientUnits="userSpaceOnUse" gradientTransform="translate(1323.62 883.909) rotate(90) scale(48.9089 302.624)">
<stop stop-color="#7B7B7B" stop-opacity="0.25"/>
<stop offset="1" stop-color="#D9D9D9" stop-opacity="0.03"/>
</radialGradient>
<radialGradient id="paint3_radial_9_6" cx="0" cy="0" r="1" gradientUnits="userSpaceOnUse" gradientTransform="translate(1468.06 884.181) rotate(90) scale(9.78177 60.5247)">
<stop stop-color="#7B7B7B" stop-opacity="0.25"/>
<stop offset="1" stop-color="#D9D9D9" stop-opacity="0.03"/>
</radialGradient>
</defs>
</svg>
