<svg width="424" height="154" viewBox="0 0 424 154" fill="none" xmlns="http://www.w3.org/2000/svg">
<path d="M148.648 147.139C142.765 147.139 137.448 145.82 132.697 143.18C127.946 140.465 124.213 136.694 121.498 131.867C118.783 126.965 117.425 121.309 117.425 114.898C117.425 108.563 118.82 102.945 121.611 98.0427C124.401 93.1405 128.21 89.3697 133.036 86.73C137.863 84.0904 143.256 82.7706 149.214 82.7706C155.172 82.7706 160.564 84.0904 165.391 86.73C170.217 89.3697 174.026 93.1405 176.816 98.0427C179.607 102.945 181.002 108.563 181.002 114.898C181.002 121.234 179.569 126.852 176.703 131.754C173.837 136.656 169.916 140.465 164.938 143.18C160.036 145.82 154.606 147.139 148.648 147.139ZM148.648 135.94C151.966 135.94 155.058 135.148 157.924 133.564C160.866 131.981 163.241 129.605 165.051 126.437C166.861 123.27 167.766 119.424 167.766 114.898C167.766 110.373 166.899 106.565 165.164 103.473C163.43 100.305 161.13 97.9295 158.264 96.3458C155.398 94.762 152.306 93.9701 148.987 93.9701C145.669 93.9701 142.577 94.762 139.711 96.3458C136.92 97.9295 134.696 100.305 133.036 103.473C131.377 106.565 130.548 110.373 130.548 114.898C130.548 121.611 132.245 126.814 135.638 130.51C139.108 134.13 143.444 135.94 148.648 135.94Z" fill="#222831"/>
<path d="M206.647 62.4079V146.121H193.751V62.4079H206.647Z" fill="#222831"/>
<path d="M230.14 75.5305C227.802 75.5305 225.842 74.7386 224.258 73.1549C222.674 71.5711 221.882 69.6103 221.882 67.2723C221.882 64.9344 222.674 62.9735 224.258 61.3897C225.842 59.806 227.802 59.0141 230.14 59.0141C232.403 59.0141 234.326 59.806 235.91 61.3897C237.494 62.9735 238.285 64.9344 238.285 67.2723C238.285 69.6103 237.494 71.5711 235.91 73.1549C234.326 74.7386 232.403 75.5305 230.14 75.5305ZM236.475 83.7888V146.121H223.579V83.7888H236.475Z" fill="#222831"/>
<path d="M280.445 147.139C274.562 147.139 269.245 145.82 264.494 143.18C259.742 140.465 256.009 136.694 253.294 131.867C250.579 126.965 249.222 121.309 249.222 114.898C249.222 108.563 250.617 102.945 253.407 98.0427C256.198 93.1405 260.006 89.3697 264.833 86.73C269.66 84.0904 275.052 82.7706 281.01 82.7706C286.968 82.7706 292.36 84.0904 297.187 86.73C302.014 89.3697 305.823 93.1405 308.613 98.0427C311.403 102.945 312.799 108.563 312.799 114.898C312.799 121.234 311.366 126.852 308.5 131.754C305.634 136.656 301.712 140.465 296.735 143.18C291.833 145.82 286.402 147.139 280.445 147.139ZM280.445 135.94C283.763 135.94 286.855 135.148 289.721 133.564C292.662 131.981 295.038 129.605 296.848 126.437C298.658 123.27 299.563 119.424 299.563 114.898C299.563 110.373 298.696 106.565 296.961 103.473C295.226 100.305 292.926 97.9295 290.06 96.3458C287.194 94.762 284.102 93.9701 280.784 93.9701C277.466 93.9701 274.373 94.762 271.508 96.3458C268.717 97.9295 266.492 100.305 264.833 103.473C263.174 106.565 262.344 110.373 262.344 114.898C262.344 121.611 264.041 126.814 267.435 130.51C270.904 134.13 275.241 135.94 280.445 135.94Z" fill="#222831"/>
<path d="M351.68 94.3095H340.141V146.121H327.131V94.3095H319.778V83.7888H327.131V79.3768C327.131 72.2122 329.017 67.0083 332.788 63.7654C336.634 60.447 342.63 58.7878 350.775 58.7878V69.5348C346.853 69.5348 344.1 70.289 342.516 71.7974C340.933 73.2303 340.141 75.7568 340.141 79.3768V83.7888H351.68V94.3095Z" fill="#222831"/>
<path d="M369.67 75.5305C367.332 75.5305 365.371 74.7386 363.788 73.1549C362.204 71.5711 361.412 69.6103 361.412 67.2723C361.412 64.9344 362.204 62.9735 363.788 61.3897C365.371 59.806 367.332 59.0141 369.67 59.0141C371.933 59.0141 373.856 59.806 375.44 61.3897C377.023 62.9735 377.815 64.9344 377.815 67.2723C377.815 69.6103 377.023 71.5711 375.44 73.1549C373.856 74.7386 371.933 75.5305 369.67 75.5305ZM376.005 83.7888V146.121H363.109V83.7888H376.005Z" fill="#222831"/>
<path d="M407.983 94.3095V128.813C407.983 131.151 408.511 132.848 409.567 133.904C410.698 134.884 412.583 135.374 415.223 135.374H423.142V146.121H412.961C407.153 146.121 402.704 144.764 399.612 142.049C396.519 139.334 394.973 134.922 394.973 128.813V94.3095H387.62V83.7888H394.973V68.2904H407.983V83.7888H423.142V94.3095H407.983Z" fill="#222831"/>
<path fill-rule="evenodd" clip-rule="evenodd" d="M53.0849 153.428C43.0146 153.428 33.9513 151.702 25.8951 148.249C17.8388 144.653 11.5089 139.618 6.90535 133.144C2.30178 126.67 0 119.117 0 110.486H26.3266C26.9021 116.959 29.4197 122.282 33.8794 126.454C38.4829 130.626 44.8848 132.712 53.0849 132.712C61.5727 132.712 68.1903 130.698 72.9378 126.67C75.4504 124.462 77.2981 121.931 78.4809 119.079H103.699C102.675 123.186 100.981 127.155 98.617 130.986C94.5889 137.747 88.6186 143.214 80.7063 147.386C72.9378 151.414 63.7306 153.428 53.0849 153.428ZM75.5273 98.4012L75.5914 98.4688H103.694C102.608 93.9089 100.772 90.0021 98.1854 86.7485C93.8696 80.994 88.5467 76.7501 82.2168 74.0167C76.0308 71.2833 67.9745 68.55 58.0481 65.8166C52.8537 64.4181 48.4222 63.089 44.7538 61.8292H4.71261C5.36822 63.0078 6.09913 64.1212 6.90535 65.1692C11.2212 70.7798 16.4002 74.9518 22.4424 77.6852C28.6284 80.2747 36.6127 82.8642 46.3953 85.4537C54.1638 87.4678 60.206 89.338 64.5219 91.0643C68.9816 92.7906 72.65 95.2363 75.5273 98.4012ZM0.453846 41.2195C0.692092 33.2131 2.84259 26.1628 6.90535 20.0687C11.2212 13.5949 17.2634 8.6317 25.0319 5.17903C32.8004 1.72635 41.7917 0 52.0059 0C66.5359 0 78.4045 3.66847 87.6116 11.0054C96.9626 18.1985 102.142 28.1249 103.149 40.7847H75.9588C75.5273 35.318 72.9377 30.6425 68.1903 26.7582C63.4429 22.874 57.1849 20.9318 49.4164 20.9318C42.3672 20.9318 36.6127 22.7301 32.153 26.3267C27.836 29.8081 25.6085 34.7724 25.4703 41.2195H0.453846Z" fill="#222831"/>
</svg>
